<svg width="287" height="126" viewBox="0 0 287 126" fill="none" xmlns="http://www.w3.org/2000/svg">
<rect width="283" height="87" fill="black" fill-opacity="0.01"/>
<path d="M68.4679 38.5698C54.6263 30.2685 31.7976 29.5037 18.5837 33.5528C18.0775 33.7059 17.5459 33.7574 17.0197 33.7044C16.4935 33.6513 15.983 33.4948 15.5176 33.2438C15.0522 32.9927 14.6411 32.6522 14.308 32.2417C13.9749 31.8313 13.7264 31.359 13.5767 30.8522C13.2644 29.8268 13.3702 28.7197 13.871 27.7719C14.3719 26.8241 15.2272 26.1124 16.2507 25.7917C31.4166 21.1408 56.6327 22.0398 72.5677 31.5917C74.4762 32.7372 75.1039 35.2239 73.9719 37.1488C73.7066 37.606 73.353 38.006 72.9317 38.3255C72.5103 38.645 72.0296 38.8776 71.5174 39.0098C71.0053 39.1421 70.472 39.1713 69.9484 39.0957C69.4249 39.0202 68.9216 38.8414 68.4679 38.5698ZM68.0144 50.8658C67.7873 51.2432 67.4874 51.5717 67.1322 51.8324C66.777 52.093 66.3735 52.2806 65.9452 52.3841C65.5168 52.4876 65.0721 52.5051 64.6369 52.4355C64.2018 52.3659 63.7848 52.2106 63.4102 51.9787C51.8725 44.812 34.2757 42.7385 20.6227 46.9254C20.2004 47.0529 19.7569 47.0956 19.318 47.0511C18.879 47.0067 18.4532 46.8759 18.0651 46.6663C17.6769 46.4567 17.3341 46.1725 17.0563 45.83C16.7786 45.4875 16.5714 45.0935 16.4467 44.6707C16.1887 43.816 16.2783 42.8942 16.696 42.105C17.1136 41.3158 17.8258 40.7229 18.678 40.4548C34.272 35.6734 53.6612 37.9898 66.915 46.2185C68.486 47.1973 68.9831 49.278 68.0144 50.8658ZM62.7607 62.6724C62.5803 62.975 62.3415 63.2388 62.058 63.4482C61.7746 63.6576 61.4522 63.8086 61.1098 63.8923C60.7673 63.976 60.4117 63.9907 60.0635 63.9356C59.7153 63.8805 59.3815 63.7567 59.0817 63.5714C48.9953 57.3473 36.3075 55.9408 21.3592 59.3918C21.0152 59.4698 20.659 59.479 20.3114 59.4189C19.9637 59.3587 19.6314 59.2304 19.3336 59.0414C19.0358 58.8524 18.7784 58.6063 18.5762 58.3174C18.374 58.0285 18.2311 57.7025 18.1555 57.3582C17.9945 56.6622 18.1159 55.9308 18.4933 55.3242C18.8707 54.7175 19.4733 54.2849 20.1692 54.121C36.5251 50.3438 50.5554 51.9714 61.8754 58.9568C62.4823 59.3355 62.9154 59.9377 63.0811 60.6331C63.2468 61.3285 63.1317 62.0612 62.7607 62.6724ZM43.0704 0.123047C19.3528 0.123047 0.130615 19.5385 0.130615 43.4889C0.130615 67.4429 19.3528 86.8548 43.0704 86.8548C66.7844 86.8548 86.0102 67.4429 86.0102 43.4889C86.0102 19.5385 66.7844 0.123047 43.0668 0.123047H43.0704ZM116.952 40.1575C109.539 38.3704 108.218 37.1198 108.218 34.4844C108.218 31.9977 110.541 30.3229 113.987 30.3229C117.329 30.3229 120.645 31.5953 124.121 34.2125C124.226 34.2923 124.357 34.3213 124.487 34.3032C124.551 34.2932 124.613 34.2704 124.667 34.2361C124.722 34.2019 124.77 34.1569 124.807 34.1038L128.428 28.949C128.499 28.8468 128.529 28.7214 128.513 28.5979C128.496 28.4743 128.433 28.3615 128.337 28.282C124.201 24.9289 119.542 23.3013 114.096 23.3013C106.092 23.3013 100.501 28.1515 100.501 35.0934C100.501 42.5392 105.327 45.1709 113.661 47.2082C120.754 48.8575 121.951 50.2423 121.951 52.7145C121.951 55.4514 119.531 57.1552 115.635 57.1552C111.306 57.1552 107.776 55.6834 103.828 52.2288C103.78 52.1859 103.724 52.1531 103.662 52.1325C103.601 52.112 103.536 52.104 103.472 52.109C103.408 52.1141 103.345 52.1322 103.288 52.1621C103.23 52.192 103.18 52.2332 103.139 52.2832L99.079 57.1624C98.9964 57.2597 98.9551 57.3854 98.9639 57.5128C98.9727 57.6401 99.031 57.7589 99.1262 57.8439C103.723 61.9873 109.372 64.1732 115.468 64.1732C124.096 64.1732 129.668 59.4135 129.668 52.0475C129.668 45.8198 125.986 42.376 116.952 40.1575ZM155.447 48.5023C155.447 53.7585 152.24 57.4307 147.646 57.4307C143.111 57.4307 139.686 53.5954 139.686 48.5023C139.686 43.4128 143.107 39.5775 147.65 39.5775C152.167 39.5775 155.447 43.3294 155.447 48.5023ZM149.185 32.7698C145.448 32.7698 142.378 34.2597 139.849 37.3083V33.879C139.85 33.7499 139.8 33.6256 139.71 33.5332C139.619 33.4409 139.496 33.388 139.367 33.386H132.727C132.663 33.3865 132.599 33.3997 132.54 33.4247C132.481 33.4497 132.427 33.4862 132.382 33.5319C132.337 33.5777 132.301 33.6319 132.277 33.6915C132.253 33.751 132.24 33.8148 132.241 33.879V71.9923C132.241 72.2642 132.459 72.4853 132.727 72.4853H139.367C139.496 72.4834 139.619 72.4305 139.71 72.3381C139.8 72.2458 139.85 72.1215 139.849 71.9923V59.9609C142.382 62.8283 145.448 64.2275 149.185 64.2275C156.133 64.2275 163.164 58.8263 163.164 48.5023C163.164 38.1747 156.133 32.7698 149.185 32.7698ZM181.193 57.485C176.432 57.485 172.848 53.6244 172.848 48.5023C172.848 43.362 176.309 39.6283 181.084 39.6283C185.873 39.6283 189.483 43.4925 189.483 48.6183C189.483 53.7549 186 57.485 181.193 57.485ZM181.193 32.7734C172.245 32.7734 165.236 39.7334 165.236 48.6147C165.236 57.4017 172.198 64.2892 181.084 64.2892C190.06 64.2892 197.091 57.3545 197.091 48.5023C197.091 39.6827 190.111 32.7698 181.193 32.7698V32.7734ZM216.198 33.386H208.894V25.846C208.895 25.7817 208.883 25.7177 208.859 25.6579C208.835 25.5982 208.799 25.5438 208.754 25.4979C208.709 25.452 208.655 25.4156 208.596 25.3907C208.536 25.3658 208.472 25.353 208.408 25.353H201.768C201.64 25.355 201.517 25.4074 201.426 25.4989C201.336 25.5905 201.286 25.7139 201.286 25.8424V33.386H198.093C198.029 33.3865 197.965 33.3997 197.906 33.4247C197.847 33.4498 197.794 33.4863 197.749 33.5322C197.704 33.578 197.669 33.6322 197.645 33.6918C197.621 33.7513 197.609 33.815 197.61 33.879V39.6428C197.61 39.911 197.828 40.1322 198.093 40.1322H201.286V55.0418C201.286 61.0665 204.253 64.1224 210.109 64.1224C212.49 64.1224 214.463 63.6258 216.328 62.5564C216.403 62.5137 216.465 62.4519 216.509 62.3775C216.552 62.303 216.575 62.2184 216.575 62.1323V56.644C216.575 56.5606 216.553 56.4786 216.513 56.4057C216.472 56.3328 216.413 56.2713 216.343 56.2272C216.272 56.1835 216.192 56.1585 216.11 56.1547C216.027 56.1509 215.945 56.1684 215.871 56.2054C214.59 56.8579 213.357 57.1552 211.974 57.1552C209.845 57.1552 208.89 56.1764 208.89 53.9905V40.1285H216.198C216.262 40.1281 216.325 40.1149 216.385 40.0899C216.444 40.0649 216.498 40.0284 216.543 39.9827C216.588 39.9369 216.624 39.8827 216.648 39.8231C216.672 39.7635 216.684 39.6998 216.684 39.6355V33.8718C216.684 33.8077 216.672 33.7441 216.648 33.6848C216.624 33.6254 216.588 33.5715 216.543 33.526C216.497 33.4805 216.444 33.4444 216.384 33.4197C216.325 33.3951 216.262 33.3824 216.198 33.3824V33.386ZM241.649 33.415V32.4907C241.649 29.7647 242.683 28.5467 245.005 28.5467C246.388 28.5467 247.502 28.8258 248.746 29.2463C248.819 29.2697 248.897 29.2753 248.973 29.2627C249.048 29.2501 249.12 29.2196 249.182 29.1738C249.245 29.1283 249.296 29.0683 249.331 28.999C249.367 28.9296 249.385 28.8529 249.385 28.775V23.1273C249.386 23.0222 249.352 22.9196 249.29 22.8347C249.228 22.7498 249.141 22.6872 249.04 22.656C247.254 22.1067 245.394 21.8377 243.525 21.8585C237.394 21.8585 234.15 25.3458 234.15 31.936V33.357H230.961C230.831 33.358 230.708 33.41 230.617 33.5017C230.526 33.5933 230.475 33.7173 230.475 33.8464V39.6392C230.475 39.911 230.692 40.1322 230.961 40.1322H234.154V63.1292C234.154 63.4011 234.368 63.6185 234.636 63.6185H241.276C241.541 63.6185 241.758 63.4011 241.758 63.1292V40.1285H247.959L257.454 63.1183C256.376 65.5362 255.313 66.0183 253.869 66.0183C252.697 66.0183 251.467 65.663 250.205 64.967C250.146 64.9355 250.082 64.916 250.016 64.9098C249.95 64.9035 249.883 64.9107 249.82 64.9308C249.757 64.9531 249.699 64.9881 249.649 65.0336C249.6 65.0791 249.561 65.1342 249.533 65.1954L247.284 70.1798C247.232 70.2921 247.224 70.4199 247.262 70.5377C247.301 70.6554 247.382 70.7542 247.491 70.8142C249.648 72.0502 252.098 72.6838 254.584 72.6484C259.482 72.6484 262.192 70.3429 264.583 64.1369L276.099 34.082C276.128 34.0075 276.139 33.927 276.13 33.8474C276.121 33.7679 276.093 33.6917 276.048 33.6253C276.004 33.5597 275.945 33.506 275.876 33.4687C275.806 33.4314 275.728 33.4117 275.649 33.4114H268.738C268.636 33.4119 268.537 33.4439 268.455 33.503C268.372 33.5621 268.31 33.6454 268.277 33.7413L261.198 54.1645L253.445 33.7268C253.41 33.6342 253.349 33.5542 253.268 33.4978C253.186 33.4414 253.09 33.4113 252.991 33.4114H241.649V33.415ZM226.893 33.386H220.254C220.125 33.388 220.001 33.4409 219.911 33.5332C219.821 33.6256 219.77 33.7499 219.771 33.879V63.1292C219.771 63.4011 219.989 63.6185 220.257 63.6185H226.897C227.162 63.6185 227.38 63.4011 227.38 63.1292V33.8754C227.38 33.7463 227.329 33.6223 227.237 33.5307C227.146 33.439 227.023 33.387 226.893 33.386ZM223.606 20.0678C222.337 20.0755 221.123 20.586 220.231 21.4872C219.338 22.3884 218.84 23.6067 218.846 24.8745C218.843 25.5029 218.963 26.1258 219.201 26.7076C219.439 27.2895 219.789 27.8188 220.231 28.2655C220.673 28.7122 221.199 29.0674 221.779 29.311C222.359 29.5545 222.981 29.6816 223.61 29.6849C224.88 29.6773 226.094 29.1663 226.987 28.2642C227.879 27.3622 228.377 26.143 228.37 24.8745C228.37 22.2174 226.237 20.0678 223.61 20.0678H223.606ZM282.039 36.2969H280.823V37.8629H282.039C282.644 37.8629 283.007 37.562 283.007 37.0799C283.007 36.5688 282.644 36.2969 282.039 36.2969ZM282.826 38.5299L284.15 40.4004H283.033L281.846 38.6858H280.823V40.4004H279.891V35.445H282.075C283.214 35.445 283.965 36.0359 283.965 37.0255C283.981 37.3698 283.876 37.7086 283.668 37.9834C283.46 38.2582 283.162 38.4515 282.826 38.5299ZM281.792 33.7993C279.397 33.7993 277.587 35.7205 277.587 38.0732C277.587 40.4222 279.386 42.318 281.766 42.318C284.161 42.318 285.975 40.3968 285.975 38.0442C285.975 35.6952 284.172 33.7993 281.792 33.7993ZM281.766 42.7893C281.149 42.7879 280.539 42.6646 279.969 42.4264C279.4 42.1883 278.884 41.84 278.45 41.4017C278.016 40.9634 277.673 40.4437 277.441 39.8724C277.208 39.3012 277.092 38.6897 277.097 38.0732C277.097 35.4849 279.165 33.328 281.792 33.328C282.409 33.3295 283.02 33.4528 283.589 33.6909C284.158 33.929 284.675 34.2773 285.109 34.7156C285.543 35.1539 285.885 35.6737 286.118 36.2449C286.35 36.8162 286.467 37.4276 286.461 38.0442C286.461 40.6324 284.393 42.7929 281.766 42.7929V42.7893Z" fill="black"/>
<line y1="123.5" x2="283" y2="123.5" stroke="black" stroke-width="5"/>
</svg>
